<?xml version="1.0" encoding="iso-8859-1"?>
<!-- Generator: Adobe Illustrator 18.1.1, SVG Export Plug-In . SVG Version: 6.00 Build 0)  -->
<svg xmlns="http://www.w3.org/2000/svg" xmlns:xlink="http://www.w3.org/1999/xlink" version="1.1" id="Capa_1" x="0px" y="0px" viewBox="0 0 34.312 34.312" style="enable-background:new 0 0 34.312 34.312;" xml:space="preserve" width="512px" height="512px">
<g>
	<path d="M17.78,10.149c0-0.752-0.611-1.365-1.367-1.365c-0.758,0-1.371,0.613-1.371,1.365v6.133v2.732v0.004h2.736l0,0h6.134   c0.753,0,1.366-0.611,1.366-1.369c0-0.756-0.613-1.367-1.366-1.367h-6.134L17.78,10.149z" fill="#FFFFFF"/>
	<path d="M28.678,7.366l3.033,3.031l2.601-2.596c0,0-2.34-4.59-7.801-7.801l-2.599,2.6l3.032,3.031l0,0l0.002,0.002l-0.66,0.658   c-2.785-2.389-6.396-3.842-10.355-3.842C7.132,2.45,0,9.583,0,18.384c0,8.795,7.132,15.928,15.931,15.928s15.93-7.133,15.93-15.928   c0-3.959-1.452-7.572-3.839-10.357L28.678,7.366z M15.938,29.487c-6.099,0-11.063-4.959-11.063-11.057   c0-6.105,4.964-11.068,11.063-11.068c6.102,0,11.061,4.963,11.061,11.068C26.999,24.528,22.04,29.487,15.938,29.487z" fill="#FFFFFF"/>
	<g>
	</g>
	<g>
	</g>
	<g>
	</g>
	<g>
	</g>
	<g>
	</g>
	<g>
	</g>
	<g>
	</g>
	<g>
	</g>
	<g>
	</g>
	<g>
	</g>
	<g>
	</g>
	<g>
	</g>
	<g>
	</g>
	<g>
	</g>
	<g>
	</g>
</g>
<g>
</g>
<g>
</g>
<g>
</g>
<g>
</g>
<g>
</g>
<g>
</g>
<g>
</g>
<g>
</g>
<g>
</g>
<g>
</g>
<g>
</g>
<g>
</g>
<g>
</g>
<g>
</g>
<g>
</g>
</svg>
